HIERARCHY
ROOT Pelvis
{
	OFFSET 0.000000 0.000000 0.000000
	CHANNELS 6 Xposition Yposition Zposition Xrotation Yrotation Zrotation
	JOINT LeftUpLeg_virtual
	{
		OFFSET 0.000000 0.000000 0.000000
		CHANNELS 3 Xrotation Yrotation Zrotation
		JOINT LeftUpLeg
		{
			OFFSET 18.735201 -5.666702 -4.541200
			CHANNELS 3 Xrotation Yrotation Zrotation
			JOINT LeftLeg
			{
				OFFSET -0.021200 -31.938179 0.493100
				CHANNELS 3 Xrotation Yrotation Zrotation
				JOINT LeftFoot
				{
					OFFSET 0.021200 -31.938179 -4.336299
					CHANNELS 3 Xrotation Yrotation Zrotation
					JOINT LeftToeBase
					{
						OFFSET 0.943001 -26.722000 15.023500
						CHANNELS 3 Xrotation Yrotation Zrotation
						End Site
						{
							OFFSET 0 0 0
						}
					}
				}
			}
		}
	}
	JOINT RightUpLeg_virtual
	{
		OFFSET 0.000000 0.000000 0.000000
		CHANNELS 3 Xrotation Yrotation Zrotation
		JOINT RightUpLeg
		{
			OFFSET -18.735201 -5.666702 -4.541200
			CHANNELS 3 Xrotation Yrotation Zrotation
			JOINT RightLeg
			{
				OFFSET 0.018946 -31.938133 0.493100
				CHANNELS 3 Xrotation Yrotation Zrotation
				JOINT RightFoot
				{
					OFFSET -0.018946 -31.938126 -4.336299
					CHANNELS 3 Xrotation Yrotation Zrotation
					JOINT RightToeBase
					{
						OFFSET -0.943001 -26.722004 15.023500
						CHANNELS 3 Xrotation Yrotation Zrotation
						End Site
						{
							OFFSET 0 0 0
						}
					}
				}
			}
		}
	}
	JOINT Hips_virtual
	{
		OFFSET 0.000000 0.000000 0.000000
		CHANNELS 3 Xrotation Yrotation Zrotation
		JOINT Hips
		{
			OFFSET -0.000000 -0.000000 -0.000000
			CHANNELS 3 Xrotation Yrotation Zrotation
			JOINT Spine
			{
				OFFSET 0.000000 10.199997 -0.299500
				CHANNELS 3 Xrotation Yrotation Zrotation
				JOINT Spine1
				{
					OFFSET 0.000000 11.900002 -1.516600
					CHANNELS 3 Xrotation Yrotation Zrotation
					JOINT Spine2
					{
						OFFSET 0.000000 13.600006 -2.842500
						CHANNELS 3 Xrotation Yrotation Zrotation
						JOINT Neck_virtual
						{
							OFFSET 0.000000 0.000000 0.000000
							CHANNELS 3 Xrotation Yrotation Zrotation
							JOINT Neck
							{
								OFFSET 0.000000 9.624100 -2.890100
								CHANNELS 3 Xrotation Yrotation Zrotation
								JOINT Head
								{
									OFFSET 0.000000 14.068802 -1.351900
									CHANNELS 3 Xrotation Yrotation Zrotation
									End Site
									{
										OFFSET 0 0 0
									}
								}
							}
						}
						JOINT LeftShoulder_virtual
						{
							OFFSET 0.000000 0.000000 0.000000
							CHANNELS 3 Xrotation Yrotation Zrotation
							JOINT LeftShoulder
							{
								OFFSET 15.263000 10.923401 -0.547700
								CHANNELS 3 Xrotation Yrotation Zrotation
								JOINT LeftArm
								{
									OFFSET 25.438599 -2.830597 -13.032500
									CHANNELS 3 Xrotation Yrotation Zrotation
									JOINT LeftForeArm
									{
										OFFSET 29.960503 0.000000 0.000000
										CHANNELS 3 Xrotation Yrotation Zrotation
										JOINT LeftHand
										{
											OFFSET 27.849251 0.000000 0.000000
											CHANNELS 3 Xrotation Yrotation Zrotation
											End Site
											{
												OFFSET 0 0 0
											}
										}
									}
								}
							}
						}
						JOINT RightShoulder_virtual
						{
							OFFSET 0.000000 0.000000 0.000000
							CHANNELS 3 Xrotation Yrotation Zrotation
							JOINT RightShoulder
							{
								OFFSET -15.263000 10.923401 -0.547700
								CHANNELS 3 Xrotation Yrotation Zrotation
								JOINT RightArm
								{
									OFFSET -25.438599 -2.830597 -13.032500
									CHANNELS 3 Xrotation Yrotation Zrotation
									JOINT RightForeArm
									{
										OFFSET -29.960503 0.000000 0.000000
										CHANNELS 3 Xrotation Yrotation Zrotation
										JOINT RightHand
										{
											OFFSET -27.849251 0.000000 0.000000
											CHANNELS 3 Xrotation Yrotation Zrotation
											End Site
											{
												OFFSET 0 0 0
											}
										}
									}
								}
							}
						}
					}
				}
			}
		}
	}
}
MOTION
Frames: 5
Frame Time: 0.03333333
15.517429 5.549294 -16.222527 0.000000 0.000000 0.000000 -68.251178 52.176618 -7.411338 -111.276629 22.431075 9.737621 74.702175 2.381153 0.839156 13.079577 0.777639 -2.193698 0.000000 0.000000 0.000000 -71.372513 65.013456 30.896480 -85.429629 22.994640 -14.201497 92.508786 -6.235617 -4.581833 26.142155 -4.111773 -1.678940 0.000000 0.000000 0.000000 -18.311548 9.306819 -3.727739 -61.301194 60.128034 -6.547148 13.538660 -8.988932 -6.518819 7.166351 -4.460394 -4.839748 0.000000 0.000000 0.000000 5.041491 -1.819224 -6.081648 0.871537 0.407403 -3.350798 0.000000 0.000000 0.000000 6.454591 -2.185864 1.512806 3.384503 -7.576538 2.414474 -60.772100 -4.854602 -41.539325 -35.687100 -67.637745 -21.461113 0.000000 0.000000 0.000000 7.157917 -2.757178 -3.496196 6.183989 0.604464 -12.610790 -12.399471 39.952973 55.924609 -179.925078 62.882997 -175.024595 0.000000 0.000000 0.000000 
13.366375 7.513710 -14.678097 0.000000 0.000000 0.000000 -68.907839 55.681522 -11.573927 -112.965824 25.385187 7.925148 72.342823 3.622205 2.524685 11.827537 1.210049 1.134858 0.000000 0.000000 0.000000 -67.233630 61.799183 23.870082 -86.521565 22.818106 -14.908973 94.085767 -7.340973 -3.385608 28.073350 -5.982157 -1.553894 0.000000 0.000000 0.000000 -18.660775 7.031390 -3.965662 -58.373904 62.659124 -5.137055 15.992422 -10.083483 -6.503959 8.696353 -4.696137 -4.558317 0.000000 0.000000 0.000000 5.286701 -1.969764 -6.844940 0.917222 0.755141 -3.647829 0.000000 0.000000 0.000000 7.001686 -2.352911 1.523746 4.599489 -5.575780 3.222448 -61.518885 -0.705795 -42.159619 -37.435884 -64.174388 -23.443491 0.000000 0.000000 0.000000 7.643322 -3.414017 -3.519635 6.499214 -1.479139 -13.390898 -15.306939 41.478916 59.331012 -175.524291 57.345121 -178.592672 0.000000 0.000000 0.000000 
11.989695 6.570244 -12.830673 0.000000 0.000000 0.000000 -74.081338 60.224701 -10.530824 -115.884104 26.874660 7.986167 70.535808 4.965997 3.666235 10.125673 2.004098 3.721496 0.000000 0.000000 0.000000 -71.664886 62.900189 27.923036 -87.718726 23.172858 -14.379462 94.534838 -8.477396 -2.883864 28.084123 -7.474806 -2.265928 0.000000 0.000000 0.000000 -17.504267 9.330805 -2.861385 -60.938374 63.785928 -3.604471 18.994650 -10.792758 -6.567640 9.363991 -5.023747 -4.101059 0.000000 0.000000 0.000000 5.918349 -2.165576 -6.987204 0.850583 0.955183 -3.881909 0.000000 0.000000 0.000000 6.984737 -2.495341 1.434951 4.222545 -6.576025 2.310516 -64.376923 3.076055 -45.359655 -43.664607 -60.882599 -30.109492 0.000000 0.000000 0.000000 8.307058 -3.730284 -3.541302 6.797344 -3.383195 -15.239665 -17.494097 40.929338 62.560127 -173.007858 55.008254 178.648488 0.000000 0.000000 0.000000 
11.357531 6.042381 -12.700169 0.000000 0.000000 0.000000 -78.008752 61.558767 -9.230412 -117.669707 27.086266 8.198651 73.519828 6.181868 4.174588 13.162217 2.961544 5.679952 0.000000 0.000000 0.000000 -77.453997 63.386792 31.081513 -90.403059 24.073739 -14.058516 93.895929 -8.920128 -2.955012 28.015788 -8.017183 -2.996377 0.000000 0.000000 0.000000 -19.585591 11.189426 -3.065044 -57.247770 63.322738 -6.888907 17.764873 -11.627285 -6.332907 9.650394 -5.216431 -4.358487 0.000000 0.000000 0.000000 4.670242 -2.582288 -6.227337 0.495908 0.645092 -3.450658 0.000000 0.000000 0.000000 7.664242 -2.947173 1.383957 4.338204 -6.515984 3.132351 -63.933275 6.509295 -43.638051 -41.428540 -57.743041 -28.382020 0.000000 0.000000 0.000000 7.739612 -3.751195 -3.352853 6.017280 -3.853341 -14.345229 -22.006702 40.500085 64.260414 -170.961165 54.489798 176.633801 0.000000 0.000000 0.000000 
11.337279 6.635239 -12.626389 0.000000 0.000000 0.000000 -83.141345 64.370858 -2.711100 -118.589187 27.051990 9.217813 74.035863 6.308234 4.110723 13.628458 3.119278 5.674021 0.000000 0.000000 0.000000 -83.011510 63.179660 35.487675 -92.604866 24.065048 -13.114382 94.046965 -10.067205 -2.824388 28.415756 -9.427498 -4.304109 0.000000 0.000000 0.000000 -17.870060 14.769217 -3.338123 -54.572788 68.877499 -9.748971 20.239363 -12.060179 -6.685068 10.140960 -5.617089 -4.039188 0.000000 0.000000 0.000000 5.381685 -2.916265 -6.122100 0.539557 0.890091 -3.261998 0.000000 0.000000 0.000000 8.480780 -3.550983 1.810800 4.527040 -6.869118 5.001836 -67.292451 3.034677 -45.975069 -50.148349 -62.167842 -37.655413 0.000000 0.000000 0.000000 8.000250 -4.231165 -3.571220 6.629725 -4.166954 -17.238119 -15.266726 39.809040 59.257731 -170.355546 54.502147 176.352711 0.000000 0.000000 0.000000 
